<?xml version="1.0" encoding="UTF-8"?>
<!--Generator: Apple Native CoreSVG 175.5-->
<!DOCTYPE svg
PUBLIC "-//W3C//DTD SVG 1.1//EN"
       "http://www.w3.org/Graphics/SVG/1.1/DTD/svg11.dtd">
<svg version="1.1" xmlns="http://www.w3.org/2000/svg" xmlns:xlink="http://www.w3.org/1999/xlink" width="3300" height="2200">
 <!--glyph: "uni100D6C.medium", point size: 100.0, font version: "18.0d12e2", template writer version: "101"-->
 <g id="Notes">
  <rect height="2200" id="artboard" style="fill:white;opacity:1" width="3300" x="0" y="0"/>
  <line style="fill:none;stroke:black;opacity:1;stroke-width:0.5;" x1="263" x2="3036" y1="292" y2="292"/>
  <text style="stroke:none;fill:black;font-family:sans-serif;font-size:13;font-weight:bold;" transform="matrix(1 0 0 1 263 322)">Weight/Scale Variations</text>
  <text style="stroke:none;fill:black;font-family:sans-serif;font-size:13;text-anchor:middle;" transform="matrix(1 0 0 1 559.711 322)">Ultralight</text>
  <text style="stroke:none;fill:black;font-family:sans-serif;font-size:13;text-anchor:middle;" transform="matrix(1 0 0 1 856.422 322)">Thin</text>
  <text style="stroke:none;fill:black;font-family:sans-serif;font-size:13;text-anchor:middle;" transform="matrix(1 0 0 1 1153.13 322)">Light</text>
  <text style="stroke:none;fill:black;font-family:sans-serif;font-size:13;text-anchor:middle;" transform="matrix(1 0 0 1 1449.84 322)">Regular</text>
  <text style="stroke:none;fill:black;font-family:sans-serif;font-size:13;text-anchor:middle;" transform="matrix(1 0 0 1 1746.56 322)">Medium</text>
  <text style="stroke:none;fill:black;font-family:sans-serif;font-size:13;text-anchor:middle;" transform="matrix(1 0 0 1 2043.27 322)">Semibold</text>
  <text style="stroke:none;fill:black;font-family:sans-serif;font-size:13;text-anchor:middle;" transform="matrix(1 0 0 1 2339.98 322)">Bold</text>
  <text style="stroke:none;fill:black;font-family:sans-serif;font-size:13;text-anchor:middle;" transform="matrix(1 0 0 1 2636.69 322)">Heavy</text>
  <text style="stroke:none;fill:black;font-family:sans-serif;font-size:13;text-anchor:middle;" transform="matrix(1 0 0 1 2933.4 322)">Black</text>
  <line style="fill:none;stroke:black;opacity:1;stroke-width:0.5;" x1="263" x2="3036" y1="1903" y2="1903"/>
  <g transform="matrix(1 0 0 1 263 1933)">
   <path d="M9.24805 0.830078C13.5547 0.830078 17.1387-2.74414 17.1387-7.05078C17.1387-11.3574 13.5449-14.9316 9.23828-14.9316C4.94141-14.9316 1.36719-11.3574 1.36719-7.05078C1.36719-2.74414 4.95117 0.830078 9.24805 0.830078ZM9.24805-0.654297C5.70312-0.654297 2.87109-3.49609 2.87109-7.05078C2.87109-10.6055 5.69336-13.4473 9.23828-13.4473C12.793-13.4473 15.6445-10.6055 15.6445-7.05078C15.6445-3.49609 12.8027-0.654297 9.24805-0.654297ZM5.6543-7.05078C5.6543-6.62109 5.95703-6.32812 6.40625-6.32812L8.50586-6.32812L8.50586-4.20898C8.50586-3.76953 8.79883-3.4668 9.22852-3.4668C9.67773-3.4668 9.9707-3.76953 9.9707-4.20898L9.9707-6.32812L12.0898-6.32812C12.5293-6.32812 12.832-6.62109 12.832-7.05078C12.832-7.49023 12.5293-7.79297 12.0898-7.79297L9.9707-7.79297L9.9707-9.90234C9.9707-10.3516 9.67773-10.6543 9.22852-10.6543C8.79883-10.6543 8.50586-10.3516 8.50586-9.90234L8.50586-7.79297L6.40625-7.79297C5.95703-7.79297 5.6543-7.49023 5.6543-7.05078Z"/>
  </g>
  <g transform="matrix(1 0 0 1 281.867 1933)">
   <path d="M11.709 2.91016C17.1582 2.91016 21.6699-1.61133 21.6699-7.05078C21.6699-12.5 17.1484-17.0117 11.6992-17.0117C6.25977-17.0117 1.74805-12.5 1.74805-7.05078C1.74805-1.61133 6.26953 2.91016 11.709 2.91016ZM11.709 1.25C7.09961 1.25 3.41797-2.44141 3.41797-7.05078C3.41797-11.6602 7.08984-15.3516 11.6992-15.3516C16.3086-15.3516 20.0098-11.6602 20.0098-7.05078C20.0098-2.44141 16.3184 1.25 11.709 1.25ZM7.17773-7.05078C7.17773-6.57227 7.50977-6.25 8.00781-6.25L10.8789-6.25L10.8789-3.36914C10.8789-2.88086 11.2109-2.53906 11.6895-2.53906C12.1777-2.53906 12.5195-2.87109 12.5195-3.36914L12.5195-6.25L15.4004-6.25C15.8887-6.25 16.2305-6.57227 16.2305-7.05078C16.2305-7.53906 15.8887-7.88086 15.4004-7.88086L12.5195-7.88086L12.5195-10.752C12.5195-11.25 12.1777-11.5918 11.6895-11.5918C11.2109-11.5918 10.8789-11.25 10.8789-10.752L10.8789-7.88086L8.00781-7.88086C7.50977-7.88086 7.17773-7.53906 7.17773-7.05078Z"/>
  </g>
  <g transform="matrix(1 0 0 1 305.646 1933)">
   <path d="M14.9707 5.66406C21.9336 5.66406 27.6953-0.0976562 27.6953-7.05078C27.6953-14.0137 21.9238-19.7754 14.9609-19.7754C8.00781-19.7754 2.25586-14.0137 2.25586-7.05078C2.25586-0.0976562 8.01758 5.66406 14.9707 5.66406ZM14.9707 3.84766C8.93555 3.84766 4.08203-1.01562 4.08203-7.05078C4.08203-13.0957 8.92578-17.9492 14.9609-17.9492C21.0059-17.9492 25.8691-13.0957 25.8691-7.05078C25.8691-1.01562 21.0156 3.84766 14.9707 3.84766ZM9.19922-7.05078C9.19922-6.5332 9.57031-6.17188 10.1172-6.17188L14.0625-6.17188L14.0625-2.2168C14.0625-1.67969 14.4336-1.29883 14.9512-1.29883C15.4883-1.29883 15.8594-1.66992 15.8594-2.2168L15.8594-6.17188L19.8145-6.17188C20.3516-6.17188 20.7324-6.5332 20.7324-7.05078C20.7324-7.59766 20.3613-7.96875 19.8145-7.96875L15.8594-7.96875L15.8594-11.9141C15.8594-12.4609 15.4883-12.8418 14.9512-12.8418C14.4336-12.8418 14.0625-12.4609 14.0625-11.9141L14.0625-7.96875L10.1172-7.96875C9.57031-7.96875 9.19922-7.59766 9.19922-7.05078Z"/>
  </g>
  <text style="stroke:none;fill:black;font-family:sans-serif;font-size:13;font-weight:bold;" transform="matrix(1 0 0 1 263 1953)">Design Variations</text>
  <text style="stroke:none;fill:black;font-family:sans-serif;font-size:13;" transform="matrix(1 0 0 1 263 1971)">Symbols are supported in up to nine weights and three scales.</text>
  <text style="stroke:none;fill:black;font-family:sans-serif;font-size:13;" transform="matrix(1 0 0 1 263 1989)">For optimal layout with text and other symbols, vertically align</text>
  <text style="stroke:none;fill:black;font-family:sans-serif;font-size:13;" transform="matrix(1 0 0 1 263 2007)">symbols with the adjacent text.</text>
  <line style="fill:none;stroke:#00AEEF;stroke-width:0.5;opacity:1.0;" x1="776" x2="776" y1="1919" y2="1933"/>
  <g transform="matrix(1 0 0 1 776 1933)">
   <path d="M3.31055 0.15625C3.82812 0.15625 4.08203-0.0390625 4.26758-0.585938L5.52734-4.0332L11.2891-4.0332L12.5488-0.585938C12.7344-0.0390625 12.9883 0.15625 13.4961 0.15625C14.0137 0.15625 14.3457-0.15625 14.3457-0.644531C14.3457-0.810547 14.3164-0.966797 14.2383-1.17188L9.6582-13.3691C9.43359-13.9648 9.0332-14.2676 8.4082-14.2676C7.80273-14.2676 7.39258-13.9746 7.17773-13.3789L2.59766-1.16211C2.51953-0.957031 2.49023-0.800781 2.49023-0.634766C2.49023-0.146484 2.80273 0.15625 3.31055 0.15625ZM6.00586-5.51758L8.37891-12.0898L8.42773-12.0898L10.8008-5.51758Z"/>
  </g>
  <line style="fill:none;stroke:#00AEEF;stroke-width:0.5;opacity:1.0;" x1="793.197" x2="793.197" y1="1919" y2="1933"/>
  <text style="stroke:none;fill:black;font-family:sans-serif;font-size:13;font-weight:bold;" transform="matrix(1 0 0 1 776 1953)">Margins</text>
  <text style="stroke:none;fill:black;font-family:sans-serif;font-size:13;" transform="matrix(1 0 0 1 776 1971)">Leading and trailing margins on the left and right side of each symbol</text>
  <text style="stroke:none;fill:black;font-family:sans-serif;font-size:13;" transform="matrix(1 0 0 1 776 1989)">can be adjusted by modifying the x-location of the margin guidelines.</text>
  <text style="stroke:none;fill:black;font-family:sans-serif;font-size:13;" transform="matrix(1 0 0 1 776 2007)">Modifications are automatically applied proportionally to all</text>
  <text style="stroke:none;fill:black;font-family:sans-serif;font-size:13;" transform="matrix(1 0 0 1 776 2025)">scales and weights.</text>
  <g transform="matrix(1 0 0 1 1289 1933)">
   <path d="M2.8418 1.86523L4.54102 3.57422C5.40039 4.44336 6.38672 4.38477 7.31445 3.35938L18.0078-8.42773L17.041-9.4043L6.42578 2.27539C6.07422 2.67578 5.74219 2.77344 5.27344 2.30469L4.10156 1.14258C3.63281 0.683594 3.74023 0.341797 4.14062-0.0195312L15.6152-10.8203L14.6387-11.7871L3.04688-0.898438C2.06055 0.0195312 1.98242 0.996094 2.8418 1.86523ZM9.25781-16.3281C8.83789-15.918 8.80859-15.3418 9.04297-14.9512C9.27734-14.5898 9.73633-14.3555 10.3809-14.5215C11.8457-14.8633 13.3691-14.9219 14.7949-13.9844L14.209-12.5293C13.8672-11.6992 14.043-11.1133 14.5801-10.5664L16.875-8.25195C17.3633-7.76367 17.7734-7.74414 18.3398-7.8418L19.4043-8.03711L20.0684-7.36328L20.0293-6.80664C19.9902-6.30859 20.1172-5.92773 20.6055-5.44922L21.3672-4.70703C21.8457-4.22852 22.4609-4.19922 22.9297-4.66797L25.8398-7.58789C26.3086-8.05664 26.2891-8.65234 25.8105-9.13086L25.0391-9.89258C24.5605-10.3711 24.1895-10.5273 23.7109-10.4883L23.1348-10.4395L22.4902-11.0742L22.7344-12.1973C22.8613-12.7637 22.7051-13.2031 22.1191-13.7891L19.9219-15.9766C16.582-19.2969 12.1484-19.2188 9.25781-16.3281ZM10.752-15.957C13.1836-17.7344 16.4746-17.4316 18.7012-15.2051L21.1328-12.793C21.3672-12.5586 21.4062-12.373 21.3379-12.0312L21.0156-10.5469L22.5195-9.0625L23.5059-9.12109C23.7598-9.13086 23.8379-9.11133 24.0332-8.91602L24.6094-8.33984L22.168-5.89844L21.5918-6.47461C21.3965-6.66992 21.3672-6.74805 21.377-7.01172L21.4453-7.98828L19.9512-9.47266L18.4277-9.21875C18.1055-9.15039 17.959-9.17969 17.7148-9.41406L15.7129-11.416C15.459-11.6504 15.4297-11.8164 15.5859-12.1875L16.4648-14.2773C14.9023-15.7324 12.8711-16.3574 10.8398-15.7617C10.6836-15.7227 10.625-15.8496 10.752-15.957Z"/>
  </g>
  <text style="stroke:none;fill:black;font-family:sans-serif;font-size:13;font-weight:bold;" transform="matrix(1 0 0 1 1289 1953)">Exporting</text>
  <text style="stroke:none;fill:black;font-family:sans-serif;font-size:13;" transform="matrix(1 0 0 1 1289 1971)">Symbols should be outlined when exporting to ensure the</text>
  <text style="stroke:none;fill:black;font-family:sans-serif;font-size:13;" transform="matrix(1 0 0 1 1289 1989)">design is preserved when submitting to Xcode.</text>
  <text id="template-version" style="stroke:none;fill:black;font-family:sans-serif;font-size:13;text-anchor:end;" transform="matrix(1 0 0 1 3036 1933)">Template v.2.0</text>
  <text style="stroke:none;fill:black;font-family:sans-serif;font-size:13;text-anchor:end;" transform="matrix(1 0 0 1 3036 1951)">Requires Xcode 12 or greater</text>
  <text id="descriptive-name" style="stroke:none;fill:black;font-family:sans-serif;font-size:13;text-anchor:end;" transform="matrix(1 0 0 1 3036 1969)">Generated from arrow.up.and.down.text.horizontal</text>
  <text style="stroke:none;fill:black;font-family:sans-serif;font-size:13;text-anchor:end;" transform="matrix(1 0 0 1 3036 1987)">Typeset at 100 points</text>
  <text style="stroke:none;fill:black;font-family:sans-serif;font-size:13;" transform="matrix(1 0 0 1 263 726)">Small</text>
  <text style="stroke:none;fill:black;font-family:sans-serif;font-size:13;" transform="matrix(1 0 0 1 263 1156)">Medium</text>
  <text style="stroke:none;fill:black;font-family:sans-serif;font-size:13;" transform="matrix(1 0 0 1 263 1586)">Large</text>
 </g>
 <g id="Guides">
  <g id="H-reference" style="fill:#27AAE1;stroke:none;" transform="matrix(1 0 0 1 339 696)">
   <path d="M0.993654 0L3.63775 0L29.3281-67.1323L30.0303-67.1323L30.0303-70.459L28.1226-70.459ZM11.6885-24.4799L46.9815-24.4799L46.2315-26.7285L12.4385-26.7285ZM55.1196 0L57.7637 0L30.6382-70.459L29.4326-70.459L29.4326-67.1323Z"/>
  </g>
  <line id="Baseline-S" style="fill:none;stroke:#27AAE1;opacity:1;stroke-width:0.5;" x1="263" x2="3036" y1="696" y2="696"/>
  <line id="Capline-S" style="fill:none;stroke:#27AAE1;opacity:1;stroke-width:0.5;" x1="263" x2="3036" y1="625.541" y2="625.541"/>
  <g id="H-reference" style="fill:#27AAE1;stroke:none;" transform="matrix(1 0 0 1 339 1126)">
   <path d="M0.993654 0L3.63775 0L29.3281-67.1323L30.0303-67.1323L30.0303-70.459L28.1226-70.459ZM11.6885-24.4799L46.9815-24.4799L46.2315-26.7285L12.4385-26.7285ZM55.1196 0L57.7637 0L30.6382-70.459L29.4326-70.459L29.4326-67.1323Z"/>
  </g>
  <line id="Baseline-M" style="fill:none;stroke:#27AAE1;opacity:1;stroke-width:0.5;" x1="263" x2="3036" y1="1126" y2="1126"/>
  <line id="Capline-M" style="fill:none;stroke:#27AAE1;opacity:1;stroke-width:0.5;" x1="263" x2="3036" y1="1055.54" y2="1055.54"/>
  <g id="H-reference" style="fill:#27AAE1;stroke:none;" transform="matrix(1 0 0 1 339 1556)">
   <path d="M0.993654 0L3.63775 0L29.3281-67.1323L30.0303-67.1323L30.0303-70.459L28.1226-70.459ZM11.6885-24.4799L46.9815-24.4799L46.2315-26.7285L12.4385-26.7285ZM55.1196 0L57.7637 0L30.6382-70.459L29.4326-70.459L29.4326-67.1323Z"/>
  </g>
  <line id="Baseline-L" style="fill:none;stroke:#27AAE1;opacity:1;stroke-width:0.5;" x1="263" x2="3036" y1="1556" y2="1556"/>
  <line id="Capline-L" style="fill:none;stroke:#27AAE1;opacity:1;stroke-width:0.5;" x1="263" x2="3036" y1="1485.54" y2="1485.54"/>
  <line id="left-margin" style="fill:none;stroke:#00AEEF;stroke-width:0.5;opacity:1.0;" x1="1373.1" x2="1373.1" y1="1030.79" y2="1150.12"/>
  <line id="right-margin" style="fill:none;stroke:#00AEEF;stroke-width:0.5;opacity:1.0;" x1="1526.59" x2="1526.59" y1="1030.79" y2="1150.12"/>
 </g>
 <g id="Symbols">
  <g id="Black-L" transform="matrix(1 0 0 1 2825.71 1556)">
   <path d="M83.9694-77.3595L190.534-77.3595C195.428-77.3595 199.294-81.5939 199.294-86.3698C199.294-91.3208 195.487-95.3801 190.534-95.3801L83.9694-95.3801C79.0976-95.3801 75.2511-91.204 75.2511-86.3698C75.2511-81.7107 79.156-77.3595 83.9694-77.3595ZM83.9694-44.3057L190.534-44.3057C195.428-44.3057 199.294-48.561 199.294-53.3368C199.294-58.2671 195.487-62.3471 190.534-62.3471L83.9694-62.3471C79.0976-62.3471 75.2511-58.1503 75.2511-53.3368C75.2511-48.6778 79.156-44.3057 83.9694-44.3057ZM83.9694-11.2143L190.534-11.2143C195.428-11.2143 199.294-15.4684 199.294-20.2454C199.294-25.1757 195.487-29.2558 190.534-29.2558L83.9694-29.2558C79.0976-29.2558 75.2511-25.0589 75.2511-20.2454C75.2511-15.5852 79.156-11.2143 83.9694-11.2143ZM83.9694 21.8187L150.78 21.8187C155.653 21.8187 159.519 17.5646 159.519 12.7875C159.519 7.85728 155.711 3.77721 150.78 3.77721L83.9694 3.77721C79.0976 3.77721 75.2511 7.97409 75.2511 12.7875C75.2511 17.4478 79.156 21.8187 83.9694 21.8187ZM40.1978 24.0017L54.7866 4.969C57.9678 0.772732 56.1197-4.52261 50.7083-4.52261L42.4551-4.52261L42.4551-69.6645L50.7083-69.6645C56.0781-69.6645 58.0094-74.9182 54.7866-79.1353L40.1978-98.1888C38.1438-100.883 34.3532-100.802 32.3003-98.1888L17.696-79.1353C14.4136-74.8598 16.324-69.6645 21.8482-69.6645L29.9095-69.6645L29.9095-4.52261L21.8482-4.52261C16.324-4.52261 14.4136 0.672692 17.696 4.969L32.3003 24.0017C34.3532 26.6567 38.1438 26.7163 40.1978 24.0017Z"/>
  </g>
  <g id="Heavy-L" transform="matrix(1 0 0 1 2531.19 1556)">
   <path d="M81.8248-78.1046L187.14-78.1046C191.478-78.1046 194.907-81.7915 194.907-86.0345C194.907-90.4115 191.522-93.9645 187.14-93.9645L81.8248-93.9645C77.5227-93.9645 74.118-90.3223 74.118-86.0345C74.118-81.8807 77.5673-78.1046 81.8248-78.1046ZM81.8248-45.0464L187.14-45.0464C191.478-45.0464 194.907-48.7634 194.907-53.0065C194.907-57.3533 191.522-60.9365 187.14-60.9365L81.8248-60.9365C77.5227-60.9365 74.118-57.2641 74.118-53.0065C74.118-48.8527 77.5673-45.0464 81.8248-45.0464ZM81.8248-11.9738L187.14-11.9738C191.478-11.9738 194.907-15.6852 194.907-19.9339C194.907-24.2807 191.522-27.8638 187.14-27.8638L81.8248-27.8638C77.5227-27.8638 74.118-24.1914 74.118-19.9339C74.118-15.7744 77.5673-11.9738 81.8248-11.9738ZM81.8248 21.0543L147.231 21.0543C151.538 21.0543 154.968 17.3428 154.968 13.0941C154.968 8.74736 151.583 5.16419 147.231 5.16419L81.8248 5.16419C77.5227 5.16419 74.118 8.8366 74.118 13.0941C74.118 17.2536 77.5673 21.0543 81.8248 21.0543ZM39.2359 23.4286L53.3249 4.98064C56.3207 1.01443 54.6001-4.01941 49.4536-4.01941L41.0276-4.01941L41.0276-69.3974L49.4536-69.3974C54.5398-69.3974 56.3811-74.3709 53.3249-78.3673L39.2359-96.8454C37.2772-99.4306 33.6356-99.3502 31.6826-96.8454L17.6149-78.3673C14.5085-74.3263 16.3196-69.3974 21.5095-69.3974L29.8173-69.3974L29.8173-4.01941L21.5095-4.01941C16.3196-4.01941 14.5085 0.909442 17.6149 4.98064L31.6826 23.4286C33.6356 25.9938 37.2772 26.044 39.2359 23.4286Z"/>
  </g>
  <g id="Bold-L" transform="matrix(1 0 0 1 2237.22 1556)">
   <path d="M78.9948-79.064L182.914-79.064C186.561-79.064 189.437-82.082 189.437-85.6569C189.437-89.3193 186.59-92.2498 182.914-92.2498L78.9948-92.2498C75.3996-92.2498 72.548-89.2609 72.548-85.6569C72.548-82.1404 75.4288-79.064 78.9948-79.064ZM78.9948-45.9981L182.914-45.9981C186.561-45.9981 189.437-49.0542 189.437-52.629C189.437-56.2535 186.59-59.2219 182.914-59.2219L78.9948-59.2219C75.3996-59.2219 72.548-56.1951 72.548-52.629C72.548-49.1126 75.4288-45.9981 78.9948-45.9981ZM78.9948-12.9411L182.914-12.9411C186.561-12.9411 189.437-15.9839 189.437-19.572C189.437-23.1965 186.59-26.1649 182.914-26.1649L78.9948-26.1649C75.3996-26.1649 72.548-23.1381 72.548-19.572C72.548-16.0423 75.4288-12.9411 78.9948-12.9411ZM78.9948 20.0867L142.806 20.0867C146.414 20.0867 149.29 17.0439 149.29 13.4558C149.29 9.83137 146.443 6.86294 142.806 6.86294L78.9948 6.86294C75.3996 6.86294 72.548 9.88978 72.548 13.4558C72.548 16.9855 75.4288 20.0867 78.9948 20.0867ZM37.9778 22.6992L51.4222 5.02579C54.1652 1.38117 52.6058-3.2852 47.8492-3.2852L39.2007-3.2852L39.2007-69.2459L47.8492-69.2459C52.5298-69.2459 54.2411-73.8362 51.4222-77.5189L37.9778-95.2303C36.1419-97.6698 32.7071-97.5894 30.8844-95.2303L17.5001-77.5189C14.6387-73.807 16.312-69.2459 21.0423-69.2459L29.6499-69.2459L29.6499-3.2852L21.0423-3.2852C16.312-3.2852 14.6387 1.27599 17.5001 5.02579L30.8844 22.6992C32.7071 25.1343 36.1419 25.1768 37.9778 22.6992Z"/>
  </g>
  <g id="Semibold-L" transform="matrix(1 0 0 1 1942.39 1556)">
   <path d="M77.0439-79.7253L180.001-79.7253C183.171-79.7253 185.666-82.2823 185.666-85.3965C185.666-88.5664 183.19-91.0676 180.001-91.0676L77.0439-91.0676C73.9359-91.0676 71.4656-88.5292 71.4656-85.3965C71.4656-82.3195 73.9545-79.7253 77.0439-79.7253ZM77.0439-46.6543L180.001-46.6543C183.171-46.6543 185.666-49.2546 185.666-52.3688C185.666-55.4953 183.19-58.0399 180.001-58.0399L77.0439-58.0399C73.9359-58.0399 71.4656-55.4582 71.4656-52.3688C71.4656-49.2918 73.9545-46.6543 77.0439-46.6543ZM77.0439-13.608L180.001-13.608C183.171-13.608 185.666-16.1899 185.666-19.3225C185.666-22.449 183.19-24.9937 180.001-24.9937L77.0439-24.9937C73.9359-24.9937 71.4656-22.4119 71.4656-19.3225C71.4656-16.227 73.9545-13.608 77.0439-13.608ZM77.0439 19.4197L139.755 19.4197C142.881 19.4197 145.377 16.8378 145.377 13.7052C145.377 10.5787 142.9 8.03405 139.755 8.03405L77.0439 8.03405C73.9359 8.03405 71.4656 10.6158 71.4656 13.7052C71.4656 16.8007 73.9545 19.4197 77.0439 19.4197ZM37.1105 22.1964L50.1104 5.05692C52.6791 1.63399 51.2309-2.77904 46.7431-2.77904L37.9412-2.77904L37.9412-69.1414L46.7431-69.1414C51.1442-69.1414 52.7658-73.4677 50.1104-76.9339L37.1105-94.1168C35.3592-96.456 32.067-96.3755 30.3342-94.1168L17.4209-76.9339C14.7285-73.4491 16.3068-69.1414 20.7202-69.1414L29.5345-69.1414L29.5345-2.77904L20.7202-2.77904C16.3068-2.77904 14.7285 1.52869 17.4209 5.05692L30.3342 22.1964C32.067 24.5419 35.3592 24.5789 37.1105 22.1964Z"/>
  </g>
  <g id="Medium-L" transform="matrix(1 0 0 1 1647.11 1556)">
   <path d="M75.5646-80.2268L177.792-80.2268C180.601-80.2268 182.807-82.4342 182.807-85.1991C182.807-87.9955 180.611-90.1713 177.792-90.1713L75.5646-90.1713C72.8261-90.1713 70.6449-87.9744 70.6449-85.1991C70.6449-82.4552 72.8366-80.2268 75.5646-80.2268ZM75.5646-47.1518L177.792-47.1518C180.601-47.1518 182.807-49.4066 182.807-52.1715C182.807-54.9204 180.611-57.1437 177.792-57.1437L75.5646-57.1437C72.8261-57.1437 70.6449-54.8994 70.6449-52.1715C70.6449-49.4276 72.8366-47.1518 75.5646-47.1518ZM75.5646-14.1137L177.792-14.1137C180.601-14.1137 182.807-16.346 182.807-19.1333C182.807-21.8823 180.611-24.1056 177.792-24.1056L75.5646-24.1056C72.8261-24.1056 70.6449-21.8613 70.6449-19.1333C70.6449-16.3671 72.8366-14.1137 75.5646-14.1137ZM75.5646 18.9139L137.442 18.9139C140.203 18.9139 142.409 16.6816 142.409 13.8943C142.409 11.1453 140.213 8.92203 137.442 8.92203L75.5646 8.92203C72.8261 8.92203 70.6449 11.1664 70.6449 13.8943C70.6449 16.6606 72.8366 18.9139 75.5646 18.9139ZM36.4528 21.8152L49.1158 5.08052C51.5523 1.8257 50.1884-2.39524 45.9045-2.39524L36.9862-2.39524L36.9862-69.0621L45.9045-69.0621C50.0935-69.0621 51.6472-73.1882 49.1158-76.4904L36.4528-93.2725C34.7658-95.5355 31.5816-95.4551 29.917-93.2725L17.3609-76.4904C14.7965-73.1777 16.3028-69.0621 20.4759-69.0621L29.447-69.0621L29.447-2.39524L20.4759-2.39524C16.3028-2.39524 14.7965 1.7203 17.3609 5.08052L29.917 21.8152C31.5816 24.0926 34.7658 24.1256 36.4528 21.8152Z"/>
  </g>
  <g id="Regular-L" transform="matrix(1 0 0 1 1352.26 1556)">
   <path d="M73.635-80.8809L174.911-80.8809C177.248-80.8809 179.077-82.6323 179.077-84.9416C179.077-87.2508 177.248-89.0022 174.911-89.0022L73.635-89.0022C71.3786-89.0022 69.5744-87.2508 69.5744-84.9416C69.5744-82.6323 71.3786-80.8809 73.635-80.8809ZM73.635-47.8007L174.911-47.8007C177.248-47.8007 179.077-49.6048 179.077-51.9141C179.077-54.1705 177.248-55.9747 174.911-55.9747L73.635-55.9747C71.3786-55.9747 69.5744-54.1705 69.5744-51.9141C69.5744-49.6048 71.3786-47.8007 73.635-47.8007ZM73.635-14.7732L174.911-14.7732C177.248-14.7732 179.077-16.5497 179.077-18.8866C179.077-21.1431 177.248-22.9472 174.911-22.9472L73.635-22.9472C71.3786-22.9472 69.5744-21.1431 69.5744-18.8866C69.5744-16.5497 71.3786-14.7732 73.635-14.7732ZM73.635 18.2543L134.425 18.2543C136.709 18.2543 138.538 16.4778 138.538 14.1409C138.538 11.8844 136.709 10.0803 134.425 10.0803L73.635 10.0803C71.3786 10.0803 69.5744 11.8844 69.5744 14.1409C69.5744 16.4778 71.3786 18.2543 73.635 18.2543ZM35.595 21.3179L47.8185 5.1113C50.0826 2.07574 48.8286-1.89465 44.8106-1.89465L35.7406-1.89465L35.7406-68.9588L44.8106-68.9588C48.7231-68.9588 50.1881-72.8236 47.8185-75.912L35.595-92.1713C33.9917-94.335 30.9485-94.2546 29.3729-92.1713L17.2826-75.912C14.8853-72.8236 16.2976-68.9588 20.1573-68.9588L29.3329-68.9588L29.3329-1.89465L20.1573-1.89465C16.2976-1.89465 14.8853 1.97022 17.2826 5.1113L29.3729 21.3179C30.9485 23.5067 33.9917 23.5343 35.595 21.3179Z"/>
  </g>
  <g id="Light-L" transform="matrix(1 0 0 1 1057.56 1556)">
   <path d="M70.5623-81.778L171.858-81.778C173.698-81.778 175.07-83.1285 175.07-84.9225C175.07-86.7164 173.698-88.067 171.858-88.067L70.5623-88.067C68.802-88.067 67.4178-86.7164 67.4178-84.9225C67.4178-83.1285 68.802-81.778 70.5623-81.778ZM70.5623-48.6786L171.858-48.6786C173.698-48.6786 175.07-50.0629 175.07-51.8568C175.07-53.6171 173.698-55.0013 171.858-55.0013L70.5623-55.0013C68.802-55.0013 67.4178-53.6171 67.4178-51.8568C67.4178-50.0629 68.802-48.6786 70.5623-48.6786ZM70.5623-15.613L171.858-15.613C173.698-15.613 175.07-16.9505 175.07-18.7912C175.07-20.5514 173.698-21.9357 171.858-21.9357L70.5623-21.9357C68.802-21.9357 67.4178-20.5514 67.4178-18.7912C67.4178-16.9505 68.802-15.613 70.5623-15.613ZM70.5623 17.4527L131.18 17.4527C132.987 17.4527 134.359 16.1152 134.359 14.2745C134.359 12.5142 132.987 11.13 131.18 11.13L70.5623 11.13C68.802 11.13 67.4178 12.5142 67.4178 14.2745C67.4178 16.1152 68.802 17.4527 70.5623 17.4527ZM34.2972 20.6881L45.9099 5.34032C47.8496 2.76281 46.7292-0.673188 43.3792-0.673188L34.0992-0.673188L34.0992-70.0085L43.3792-70.0085C46.6619-70.0085 47.917-73.3771 45.9099-75.9883L34.2972-91.3697C32.8084-93.3616 30.0515-93.2812 28.6095-91.3697L17.1109-75.9883C15.0571-73.3771 16.2785-70.0085 19.5275-70.0085L28.8748-70.0085L28.8748-0.673188L19.5275-0.673188C16.2785-0.673188 15.0571 2.69546 17.1109 5.34032L28.6095 20.6881C30.0515 22.6669 32.8084 22.7137 34.2972 20.6881Z"/>
  </g>
  <g id="Thin-L" transform="matrix(1 0 0 1 763.496 1556)">
   <path d="M66.4984-82.9643L167.819-82.9643C169.003-82.9643 169.769-83.7848 169.769-84.8972C169.769-86.0096 169.003-86.8301 167.819-86.8301L66.4984-86.8301C65.3944-86.8301 64.5654-86.0096 64.5654-84.8972C64.5654-83.7848 65.3944-82.9643 66.4984-82.9643ZM66.4984-49.8397L167.819-49.8397C169.003-49.8397 169.769-50.6687 169.769-51.7811C169.769-52.8851 169.003-53.714 167.819-53.714L66.4984-53.714C65.3944-53.714 64.5654-52.8851 64.5654-51.7811C64.5654-50.6687 65.3944-49.8397 66.4984-49.8397ZM66.4984-16.7236L167.819-16.7236C169.003-16.7236 169.769-17.4806 169.769-18.665C169.769-19.7689 169.003-20.5979 167.819-20.5979L66.4984-20.5979C65.3944-20.5979 64.5654-19.7689 64.5654-18.665C64.5654-17.4806 65.3944-16.7236 66.4984-16.7236ZM66.4984 16.3925L126.889 16.3925C128.065 16.3925 128.831 15.6356 128.831 14.4512C128.831 13.3472 128.065 12.5183 126.889 12.5183L66.4984 12.5183C65.3944 12.5183 64.5654 13.3472 64.5654 14.4512C64.5654 15.6356 65.3944 16.3925 66.4984 16.3925ZM32.5808 19.8551L43.3858 5.64322C44.8963 3.67152 43.9526 0.942288 41.486 0.942288L31.9284 0.942288L31.9284-71.3968L41.486-71.3968C43.9358-71.3968 44.9132-74.1091 43.3858-76.0893L32.5808-90.3096C31.2435-92.0743 28.8652-91.9939 27.5998-90.3096L16.8837-76.0893C15.2843-74.1091 16.2533-71.3968 18.6946-71.3968L28.269-71.3968L28.269 0.942288L18.6946 0.942288C16.2533 0.942288 15.2843 3.65465 16.8837 5.64322L27.5998 19.8551C28.8652 21.5563 31.2435 21.6283 32.5808 19.8551Z"/>
  </g>
  <g id="Ultralight-L" transform="matrix(1 0 0 1 468.142 1556)">
   <path d="M64.4168-83.572L165.75-83.572C166.599-83.572 167.054-84.121 167.054-84.8843C167.054-85.6476 166.599-86.1966 165.75-86.1966L64.4168-86.1966C63.649-86.1966 63.1045-85.6476 63.1045-84.8843C63.1045-84.121 63.649-83.572 64.4168-83.572ZM64.4168-50.4345L165.75-50.4345C166.599-50.4345 167.054-50.979 167.054-51.7423C167.054-52.5101 166.599-53.0546 165.75-53.0546L64.4168-53.0546C63.649-53.0546 63.1045-52.5101 63.1045-51.7423C63.1045-50.979 63.649-50.4345 64.4168-50.4345ZM64.4168-17.2925L165.75-17.2925C166.599-17.2925 167.054-17.7521 167.054-18.6003C167.054-19.3681 166.599-19.9127 165.75-19.9127L64.4168-19.9127C63.649-19.9127 63.1045-19.3681 63.1045-18.6003C63.1045-17.7521 63.649-17.2925 64.4168-17.2925ZM64.4168 15.8495L124.691 15.8495C125.544 15.8495 125.999 15.3899 125.999 14.5417C125.999 13.7739 125.544 13.2293 124.691 13.2293L64.4168 13.2293C63.649 13.2293 63.1045 13.7739 63.1045 14.5417C63.1045 15.3899 63.649 15.8495 64.4168 15.8495ZM31.7016 19.4284L42.0929 5.79837C43.3836 4.13695 42.5305 1.76973 40.5164 1.76973L30.8166 1.76973L30.8166-72.1079L40.5164-72.1079C42.5395-72.1079 43.3747-74.4841 42.0929-76.141L31.7016-89.7666C30.4419-91.4149 28.2575-91.3345 27.0827-89.7666L16.7673-76.141C15.4006-74.4841 16.2403-72.1079 18.2679-72.1079L27.9587-72.1079L27.9587 1.76973L18.2679 1.76973C16.2403 1.76973 15.4006 4.14594 16.7673 5.79837L27.0827 19.4284C28.2575 20.9874 30.4419 21.0723 31.7016 19.4284Z"/>
  </g>
  <g id="Black-M" transform="matrix(1 0 0 1 2848.35 1126)">
   <path d="M66.4814-67.3505L150.119-67.3505C154.321-67.3505 157.629-71.0474 157.629-75.1355C157.629-79.3949 154.378-82.9206 150.119-82.9206L66.4814-82.9206C62.2846-82.9206 58.9819-79.2807 58.9819-75.1355C58.9819-71.1616 62.3417-67.3505 66.4814-67.3505ZM66.4814-41.7435L150.119-41.7435C154.321-41.7435 157.629-45.446 157.629-49.5341C157.629-53.788 154.378-57.3192 150.119-57.3192L66.4814-57.3192C62.2846-57.3192 58.9819-53.6738 58.9819-49.5341C58.9819-45.5602 62.3417-41.7435 66.4814-41.7435ZM66.4814-16.085L150.119-16.085C154.321-16.085 157.629-19.7877 157.629-23.8755C157.629-28.1294 154.378-31.6606 150.119-31.6606L66.4814-31.6606C62.2846-31.6606 58.9819-28.0153 58.9819-23.8755C58.9819-19.9019 62.3417-16.085 66.4814-16.085ZM66.4814 9.51648L119.426 9.51648C123.622 9.51648 126.931 5.81374 126.931 1.72592C126.931-2.52799 123.679-6.05916 119.426-6.05916L66.4814-6.05916C62.2846-6.05916 58.9819-2.4138 58.9819 1.72592C58.9819 5.69955 62.3417 9.51648 66.4814 9.51648ZM31.7939 11.0665L43.4431-4.06502C46.023-7.45169 44.4999-11.7066 40.1703-11.7066L33.8961-11.7066L33.8961-62.2795L40.1703-62.2795C44.4889-62.2795 46.034-66.5234 43.4431-69.9156L31.7939-85.0526C30.136-87.2098 27.11-87.1475 25.4519-85.0526L13.7563-69.9156C11.1085-66.4663 12.6481-62.2795 17.1325-62.2795L23.1893-62.2795L23.1893-11.7066L17.1325-11.7066C12.6481-11.7066 11.1085-7.51977 13.7563-4.06502L25.4519 11.0665C27.11 13.1724 30.136 13.2292 31.7939 11.0665Z"/>
  </g>
  <g id="Heavy-M" transform="matrix(1 0 0 1 2553.6 1126)">
   <path d="M64.6684-67.9962L147.082-67.9962C150.786-67.9962 153.71-71.1948 153.71-74.8096C153.71-78.5553 150.83-81.623 147.082-81.623L64.6684-81.623C60.9828-81.623 58.0731-78.468 58.0731-74.8096C58.0731-71.282 61.0264-67.9962 64.6684-67.9962ZM64.6684-42.3867L147.082-42.3867C150.786-42.3867 153.71-45.6017 153.71-49.2165C153.71-52.9458 150.83-56.0299 147.082-56.0299L64.6684-56.0299C60.9828-56.0299 58.0731-52.8585 58.0731-49.2165C58.0731-45.6889 61.0264-42.3867 64.6684-42.3867ZM64.6684-16.7499L147.082-16.7499C150.786-16.7499 153.71-19.9627 153.71-23.5798C153.71-27.3091 150.83-30.3932 147.082-30.3932L64.6684-30.3932C60.9828-30.3932 58.0731-27.2218 58.0731-23.5798C58.0731-20.0499 61.0264-16.7499 64.6684-16.7499ZM64.6684 8.84315L116.256 8.84315C119.944 8.84315 122.867 5.63042 122.867 2.01331C122.867-1.71598 119.987-4.80013 116.256-4.80013L64.6684-4.80013C60.9828-4.80013 58.0731-1.62874 58.0731 2.01331C58.0731 5.54317 61.0264 8.84315 64.6684 8.84315ZM30.9732 10.5644L42.1903-4.07476C44.6189-7.2788 43.208-11.3273 39.0757-11.3273L32.6521-11.3273L32.6521-61.9216L39.0757-61.9216C43.1752-61.9216 44.6518-65.9373 42.1903-69.1577L30.9732-83.8133C29.398-85.8801 26.4913-85.8178 24.9184-83.8133L13.6928-69.1577C11.1854-65.8937 12.6456-61.9216 16.8595-61.9216L23.1415-61.9216L23.1415-11.3273L16.8595-11.3273C12.6456-11.3273 11.1854-7.35524 13.6928-4.07476L24.9184 10.5644C26.4913 12.6017 29.398 12.6476 30.9732 10.5644Z"/>
  </g>
  <g id="Bold-M" transform="matrix(1 0 0 1 2259.08 1126)">
   <path d="M62.6403-68.7184L143.685-68.7184C146.833-68.7184 149.326-71.3596 149.326-74.445C149.326-77.616 146.861-80.1715 143.685-80.1715L62.6403-80.1715C59.5264-80.1715 57.0565-77.5589 57.0565-74.445C57.0565-71.4167 59.555-68.7184 62.6403-68.7184ZM62.6403-43.1061L143.685-43.1061C146.833-43.1061 149.326-45.7758 149.326-48.8612C149.326-52.0037 146.861-54.5877 143.685-54.5877L62.6403-54.5877C59.5264-54.5877 57.0565-51.9466 57.0565-48.8612C57.0565-45.8329 59.555-43.1061 62.6403-43.1061ZM62.6403-17.4938L143.685-17.4938C146.833-17.4938 149.326-20.1584 149.326-23.2489C149.326-26.3914 146.861-28.9755 143.685-28.9755L62.6403-28.9755C59.5264-28.9755 57.0565-26.3343 57.0565-23.2489C57.0565-20.2155 59.555-17.4938 62.6403-17.4938ZM62.6403 8.08994L112.71 8.08994C115.829 8.08994 118.322 5.42534 118.322 2.3348C118.322-0.807629 115.857-3.39172 112.71-3.39172L62.6403-3.39172C59.5264-3.39172 57.0565-0.750533 57.0565 2.3348C57.0565 5.36824 59.555 8.08994 62.6403 8.08994ZM30.0552 10.0028L40.7888-4.08566C43.0483-7.08539 41.7629-10.9031 37.8513-10.9031L31.2606-10.9031L31.2606-61.5212L37.8513-61.5212C41.7057-61.5212 43.1055-65.2816 40.7888-68.31L30.0552-82.427C28.5725-84.3927 25.7992-84.3304 24.3217-82.427L13.6219-68.31C11.2715-65.2531 12.6427-61.5212 16.5541-61.5212L23.0879-61.5212L23.0879-10.9031L16.5541-10.9031C12.6427-10.9031 11.2715-7.17118 13.6219-4.08566L24.3217 10.0028C25.7992 11.9634 28.5725 11.9971 30.0552 10.0028Z"/>
  </g>
  <g id="Semibold-M" transform="matrix(1 0 0 1 1963.88 1126)">
   <path d="M61.2421-69.2164L141.343-69.2164C144.107-69.2164 146.304-71.4732 146.304-74.1936C146.304-76.9685 144.125-79.1708 141.343-79.1708L61.2421-79.1708C58.5224-79.1708 56.3557-76.9322 56.3557-74.1936C56.3557-71.5095 58.5406-69.2164 61.2421-69.2164ZM61.2421-43.6021L141.343-43.6021C144.107-43.6021 146.304-45.8959 146.304-48.6163C146.304-51.3542 144.125-53.5935 141.343-53.5935L61.2421-53.5935C58.5224-53.5935 56.3557-51.3178 56.3557-48.6163C56.3557-45.9322 58.5406-43.6021 61.2421-43.6021ZM61.2421-18.0066L141.343-18.0066C144.107-18.0066 146.304-20.2933 146.304-23.0209C146.304-25.7587 144.125-27.9981 141.343-27.9981L61.2421-27.9981C58.5224-27.9981 56.3557-25.7224 56.3557-23.0209C56.3557-20.3296 58.5406-18.0066 61.2421-18.0066ZM61.2421 7.57068L110.265 7.57068C112.992 7.57068 115.188 5.28396 115.188 2.55643C115.188-0.181417 113.01-2.42077 110.265-2.42077L61.2421-2.42077C58.5224-2.42077 56.3557-0.145103 56.3557 2.55643C56.3557 5.24765 58.5406 7.57068 61.2421 7.57068ZM29.4223 9.61557L39.8227-4.09317C41.9655-6.95206 40.7666-10.6106 37.0072-10.6106L30.3012-10.6106L30.3012-61.2451L37.0072-61.2451C40.6925-61.2451 42.0396-64.8296 39.8227-67.7256L29.4223-81.4713C28.0035-83.3673 25.322-83.305 23.9103-81.4713L13.5729-67.7256C11.3308-64.8115 12.6407-61.2451 16.3435-61.2451L23.051-61.2451L23.051-10.6106L16.3435-10.6106C12.6407-10.6106 11.3308-7.0443 13.5729-4.09317L23.9103 9.61557C25.322 11.5233 28.0035 11.5486 29.4223 9.61557Z"/>
  </g>
  <g id="Medium-M" transform="matrix(1 0 0 1 1668.32 1126)">
   <path d="M60.182-69.594L139.567-69.594C142.04-69.594 144.012-71.5593 144.012-74.003C144.012-76.4775 142.05-78.412 139.567-78.412L60.182-78.412C57.7611-78.412 55.8243-76.4569 55.8243-74.003C55.8243-71.5799 57.7714-69.594 60.182-69.594ZM60.182-43.9781L139.567-43.9781C142.04-43.9781 144.012-45.9869 144.012-48.4306C144.012-50.8617 142.05-52.8396 139.567-52.8396L60.182-52.8396C57.7611-52.8396 55.8243-50.8411 55.8243-48.4306C55.8243-46.0075 57.7714-43.9781 60.182-43.9781ZM60.182-18.3954L139.567-18.3954C142.04-18.3954 144.012-20.3956 144.012-22.8479C144.012-25.279 142.05-27.257 139.567-27.257L60.182-27.257C57.7611-27.257 55.8243-25.2584 55.8243-22.8479C55.8243-20.4162 57.7714-18.3954 60.182-18.3954ZM60.182 7.17695L108.411 7.17695C110.841 7.17695 112.812 5.17676 112.812 2.72448C112.812 0.293404 110.851-1.68456 108.411-1.68456L60.182-1.68456C57.7611-1.68456 55.8243 0.313959 55.8243 2.72448C55.8243 5.1562 57.7714 7.17695 60.182 7.17695ZM28.9424 9.32197L39.0901-4.09887C41.1444-6.85096 40.0112-10.3889 36.3671-10.3889L29.5738-10.3889L29.5738-61.0358L36.3671-61.0358C39.9244-61.0358 41.2313-64.4869 39.0901-67.2824L28.9424-80.7467C27.572-82.5898 24.9602-82.5275 23.5983-80.7467L13.5358-67.2824C11.3758-64.4766 12.6393-61.0358 16.1839-61.0358L23.0229-61.0358L23.0229-10.3889L16.1839-10.3889C12.6393-10.3889 11.3758-6.94809 13.5358-4.09887L23.5983 9.32197C24.9602 11.1896 27.572 11.2085 28.9424 9.32197Z"/>
  </g>
  <g id="Regular-M" transform="matrix(1 0 0 1 1373.1 1126)">
   <path d="M58.7991-70.0864L137.251-70.0864C139.345-70.0864 141.023-71.6717 141.023-73.7544C141.023-75.8371 139.345-77.4224 137.251-77.4224L58.7991-77.4224C56.7682-77.4224 55.1312-75.8371 55.1312-73.7544C55.1312-71.6717 56.7682-70.0864 58.7991-70.0864ZM58.7991-44.4686L137.251-44.4686C139.345-44.4686 141.023-46.1057 141.023-48.1884C141.023-50.2193 139.345-51.8563 137.251-51.8563L58.7991-51.8563C56.7682-51.8563 55.1312-50.2193 55.1312-48.1884C55.1312-46.1057 56.7682-44.4686 58.7991-44.4686ZM58.7991-18.9026L137.251-18.9026C139.345-18.9026 141.023-20.5291 141.023-22.6223C141.023-24.6533 139.345-26.2903 137.251-26.2903L58.7991-26.2903C56.7682-26.2903 55.1312-24.6533 55.1312-22.6223C55.1312-20.5291 56.7682-18.9026 58.7991-18.9026ZM58.7991 6.6634L105.993 6.6634C108.035 6.6634 109.713 5.03693 109.713 2.94368C109.713 0.912735 108.035-0.724283 105.993-0.724283L58.7991-0.724283C56.7682-0.724283 55.1312 0.912735 55.1312 2.94368C55.1312 5.03693 56.7682 6.6634 58.7991 6.6634ZM28.3165 8.93902L38.1345-4.1063C40.0735-6.71909 39.0259-10.0996 35.5323-10.0996L28.625-10.0996L28.625-60.7628L35.5323-60.7628C38.9224-60.7628 40.177-64.0399 38.1345-66.7044L28.3165-79.8015C27.0091-81.5757 24.4883-81.5134 23.1914-79.8015L13.4875-66.7044C11.4344-64.0399 12.6373-60.7628 15.9756-60.7628L22.9864-60.7628L22.9864-10.0996L15.9756-10.0996C12.6373-10.0996 11.4344-6.8226 13.4875-4.1063L23.1914 8.93902C24.4883 10.7544 27.0091 10.765 28.3165 8.93902Z"/>
  </g>
  <g id="Light-M" transform="matrix(1 0 0 1 1078.19 1126)">
   <path d="M56.0443-70.8906L134.514-70.8906C136.162-70.8906 137.429-72.1166 137.429-73.7373C137.429-75.358 136.162-76.5839 134.514-76.5839L56.0443-76.5839C54.4582-76.5839 53.1976-75.358 53.1976-73.7373C53.1976-72.1166 54.4582-70.8906 56.0443-70.8906ZM56.0443-45.2558L134.514-45.2558C136.162-45.2558 137.429-46.5163 137.429-48.137C137.429-49.7231 136.162-50.9837 134.514-50.9837L56.0443-50.9837C54.4582-50.9837 53.1976-49.7231 53.1976-48.137C53.1976-46.5163 54.4582-45.2558 56.0443-45.2558ZM56.0443-19.6555L134.514-19.6555C136.162-19.6555 137.429-20.8884 137.429-22.5368C137.429-24.1228 136.162-25.3834 134.514-25.3834L56.0443-25.3834C54.4582-25.3834 53.1976-24.1228 53.1976-22.5368C53.1976-20.8884 54.4582-19.6555 56.0443-19.6555ZM56.0443 5.94474L103.085 5.94474C104.698 5.94474 105.966 4.71182 105.966 3.06346C105.966 1.4774 104.698 0.216819 103.085 0.216819L56.0443 0.216819C54.4582 0.216819 53.1976 1.4774 53.1976 3.06346C53.1976 4.71182 54.4582 5.94474 56.0443 5.94474ZM27.153 8.37436L36.4235-3.90097C38.0716-6.10309 37.1437-9.00454 34.249-9.00454L27.1535-9.00454L27.1535-61.7039L34.249-61.7039C37.0744-61.7039 38.1408-64.5361 36.4235-66.7729L27.153-79.0828C25.9482-80.703 23.6841-80.6407 22.507-79.0828L13.3335-66.7729C11.5884-64.5361 12.6202-61.7039 15.411-61.7039L22.5758-61.7039L22.5758-9.00454L15.411-9.00454C12.6202-9.00454 11.5884-6.17238 13.3335-3.90097L22.507 8.37436C23.6841 10.0015 25.9482 10.0292 27.153 8.37436Z"/>
  </g>
  <g id="Thin-M" transform="matrix(1 0 0 1 783.853 1126)">
   <path d="M52.4007-71.9543L130.893-71.9543C131.953-71.9543 132.677-72.705 132.677-73.7146C132.677-74.7243 131.953-75.475 130.893-75.475L52.4007-75.475C51.4031-75.475 50.6404-74.7243 50.6404-73.7146C50.6404-72.705 51.4031-71.9543 52.4007-71.9543ZM52.4007-46.2968L130.893-46.2968C131.953-46.2968 132.677-47.0595 132.677-48.0691C132.677-49.0668 131.953-49.8295 130.893-49.8295L52.4007-49.8295C51.4031-49.8295 50.6404-49.0668 50.6404-48.0691C50.6404-47.0595 51.4031-46.2968 52.4007-46.2968ZM52.4007-20.6513L130.893-20.6513C131.953-20.6513 132.677-21.3637 132.677-22.4236C132.677-23.4213 131.953-24.184 130.893-24.184L52.4007-24.184C51.4031-24.184 50.6404-23.4213 50.6404-22.4236C50.6404-21.3637 51.4031-20.6513 52.4007-20.6513ZM52.4007 4.99425L99.2374 4.99425C100.285 4.99425 101.01 4.28184 101.01 3.22187C101.01 2.22421 100.285 1.4615 99.2374 1.4615L52.4007 1.4615C51.4031 1.4615 50.6404 2.22421 50.6404 3.22187C50.6404 4.28184 51.4031 4.99425 52.4007 4.99425ZM25.6141 7.62755L34.1604-3.6294C35.4238-5.28839 34.6543-7.55618 32.5517-7.55618L25.2073-7.55618L25.2073-62.9486L32.5517-62.9486C34.6303-62.9486 35.4478-65.1924 34.1604-66.8634L25.6141-78.1323C24.5451-79.5488 22.6204-79.4865 21.6018-78.1323L13.1298-66.8634C11.7921-65.1924 12.5976-62.9486 14.6642-62.9486L22.0326-62.9486L22.0326-7.55618L14.6642-7.55618C12.5976-7.55618 11.7921-5.31242 13.1298-3.6294L21.6018 7.62755C22.6204 9.00578 24.5451 9.05607 25.6141 7.62755Z"/>
  </g>
  <g id="Ultralight-M" transform="matrix(1 0 0 1 488.359 1126)">
   <path d="M50.5346-72.4991L129.038-72.4991C129.797-72.4991 130.243-73.0063 130.243-73.7031C130.243-74.3998 129.797-74.907 129.038-74.907L50.5346-74.907C49.8383-74.907 49.3306-74.3998 49.3306-73.7031C49.3306-73.0063 49.8383-72.4991 50.5346-72.4991ZM50.5346-46.83L129.038-46.83C129.797-46.83 130.243-47.3377 130.243-48.0344C130.243-48.7307 129.797-49.2384 129.038-49.2384L50.5346-49.2384C49.8383-49.2384 49.3306-48.7307 49.3306-48.0344C49.3306-47.3377 49.8383-46.83 50.5346-46.83ZM50.5346-21.1613L129.038-21.1613C129.797-21.1613 130.243-21.6071 130.243-22.3657C130.243-23.062 129.797-23.5697 129.038-23.5697L50.5346-23.5697C49.8383-23.5697 49.3306-23.062 49.3306-22.3657C49.3306-21.6071 49.8383-21.1613 50.5346-21.1613ZM50.5346 4.50742L97.2669 4.50742C98.025 4.50742 98.4713 4.06161 98.4713 3.30301C98.4713 2.60672 98.025 2.09902 97.2669 2.09902L50.5346 2.09902C49.8383 2.09902 49.3306 2.60672 49.3306 3.30301C49.3306 4.06161 49.8383 4.50742 50.5346 4.50742ZM24.8259 7.24504L33.0013-3.4903C34.0676-4.87111 33.3793-6.81434 31.6823-6.81434L24.2104-6.81434L24.2104-63.5861L31.6823-63.5861C33.3785-63.5861 34.0684-65.5285 33.0013-66.9097L24.8259-77.6455C23.8265-78.9577 22.0756-78.8954 21.1381-77.6455L13.0255-66.9097C11.8964-65.5285 12.586-63.5861 14.2817-63.5861L21.7544-63.5861L21.7544-6.81434L14.2817-6.81434C12.586-6.81434 11.8964-4.87195 13.0255-3.4903L21.1381 7.24504C22.0756 8.49576 23.8265 8.55765 24.8259 7.24504Z"/>
  </g>
  <g id="Black-S" transform="matrix(1 0 0 1 2866.26 696)">
   <path d="M52.4902-60.2539L118.408-60.2539C121.826-60.2539 124.512-63.2812 124.512-66.6016C124.512-70.0684 121.875-72.9492 118.408-72.9492L52.4902-72.9492C49.0723-72.9492 46.3867-69.9707 46.3867-66.6016C46.3867-63.3789 49.1211-60.2539 52.4902-60.2539ZM52.4902-40.1855L118.408-40.1855C121.826-40.1855 124.512-43.2129 124.512-46.5332C124.512-50 121.875-52.8809 118.408-52.8809L52.4902-52.8809C49.0723-52.8809 46.3867-49.9023 46.3867-46.5332C46.3867-43.3105 49.1211-40.1855 52.4902-40.1855ZM52.4902-20.0684L118.408-20.0684C121.826-20.0684 124.512-23.0957 124.512-26.416C124.512-29.8828 121.875-32.7637 118.408-32.7637L52.4902-32.7637C49.0723-32.7637 46.3867-29.7852 46.3867-26.416C46.3867-23.1934 49.1211-20.0684 52.4902-20.0684ZM52.4902 0L94.3848 0C97.8027 0 100.488-3.02734 100.488-6.34766C100.488-9.81445 97.8516-12.6953 94.3848-12.6953L52.4902-12.6953C49.0723-12.6953 46.3867-9.7168 46.3867-6.34766C46.3867-3.125 49.1211 0 52.4902 0ZM25.0977 1.17188L34.3262-10.791C36.377-13.4766 35.1562-16.8457 31.7383-16.8457L26.8555-16.8457L26.8555-56.5918L31.7383-56.5918C35.1562-56.5918 36.377-59.9609 34.3262-62.6465L25.0977-74.6094C23.7793-76.3184 21.3867-76.2695 20.0684-74.6094L10.791-62.6465C8.69141-59.9121 9.91211-56.5918 13.4766-56.5918L18.1641-56.5918L18.1641-16.8457L13.4766-16.8457C9.91211-16.8457 8.69141-13.5254 10.791-10.791L20.0684 1.17188C21.3867 2.83203 23.7793 2.88086 25.0977 1.17188Z"/>
  </g>
  <g id="Heavy-S" transform="matrix(1 0 0 1 2571 696)">
   <path d="M51.2917-60.7034L116.161-60.7034C119.21-60.7034 121.619-63.3504 121.619-66.325C121.619-69.4115 119.247-71.9466 116.161-71.9466L51.2917-71.9466C48.254-71.9466 45.8566-69.3369 45.8566-66.325C45.8566-63.425 48.2913-60.7034 51.2917-60.7034ZM51.2917-40.635L116.161-40.635C119.21-40.635 121.619-43.2936 121.619-46.2681C121.619-49.3431 119.247-51.8898 116.161-51.8898L51.2917-51.8898C48.254-51.8898 45.8566-49.2685 45.8566-46.2681C45.8566-43.3682 48.2913-40.635 51.2917-40.635ZM51.2917-20.5409L116.161-20.5409C119.21-20.5409 121.619-23.1994 121.619-26.174C121.619-29.249 119.247-31.7956 116.161-31.7956L51.2917-31.7956C48.254-31.7956 45.8566-29.1744 45.8566-26.174C45.8566-23.274 48.2913-20.5409 51.2917-20.5409ZM51.2917-0.484028L92.0453-0.484028C95.083-0.484028 97.4919-3.14259 97.4919-6.11717C97.4919-9.19213 95.1203-11.7388 92.0453-11.7388L51.2917-11.7388C48.254-11.7388 45.8566-9.11752 45.8566-6.11717C45.8566-3.2172 48.2913-0.484028 51.2917-0.484028ZM24.5445 0.814617L33.4734-10.8256C35.4319-13.4074 34.2919-16.6613 30.9661-16.6613L25.9796-16.6613L25.9796-56.1654L30.9661-56.1654C34.2689-56.1654 35.455-59.3962 33.4734-61.9896L24.5445-73.6413C23.2837-75.2927 20.9603-75.2439 19.6996-73.6413L10.7564-61.9896C8.7375-59.3589 9.91211-56.1654 13.3152-56.1654L18.1756-56.1654L18.1756-16.6613L13.3152-16.6613C9.91211-16.6613 8.7375-13.4678 10.7564-10.8256L19.6996 0.814617C20.9603 2.4402 23.2837 2.4775 24.5445 0.814617Z"/>
  </g>
  <g id="Bold-S" transform="matrix(1 0 0 1 2275.9 696)">
   <path d="M49.9512-61.2061L113.647-61.2061C116.284-61.2061 118.384-63.4277 118.384-66.0156C118.384-68.6768 116.309-70.8252 113.647-70.8252L49.9512-70.8252C47.3389-70.8252 45.2637-68.6279 45.2637-66.0156C45.2637-63.4766 47.3633-61.2061 49.9512-61.2061ZM49.9512-41.1377L113.647-41.1377C116.284-41.1377 118.384-43.3838 118.384-45.9717C118.384-48.6084 116.309-50.7812 113.647-50.7812L49.9512-50.7812C47.3389-50.7812 45.2637-48.5596 45.2637-45.9717C45.2637-43.4326 47.3633-41.1377 49.9512-41.1377ZM49.9512-21.0693L113.647-21.0693C116.284-21.0693 118.384-23.3154 118.384-25.9033C118.384-28.54 116.309-30.7129 113.647-30.7129L49.9512-30.7129C47.3389-30.7129 45.2637-28.4912 45.2637-25.9033C45.2637-23.3643 47.3633-21.0693 49.9512-21.0693ZM49.9512-1.02539L89.4287-1.02539C92.041-1.02539 94.1406-3.27148 94.1406-5.85938C94.1406-8.49609 92.0654-10.6689 89.4287-10.6689L49.9512-10.6689C47.3389-10.6689 45.2637-8.44727 45.2637-5.85938C45.2637-3.32031 47.3633-1.02539 49.9512-1.02539ZM23.9258 0.415039L32.5195-10.8643C34.375-13.3301 33.3252-16.4551 30.1025-16.4551L25-16.4551L25-55.6885L30.1025-55.6885C33.2764-55.6885 34.4238-58.7646 32.5195-61.2549L23.9258-72.5586C22.7295-74.1455 20.4834-74.0967 19.2871-72.5586L10.7178-61.2549C8.78906-58.7402 9.91211-55.6885 13.1348-55.6885L18.1885-55.6885L18.1885-16.4551L13.1348-16.4551C9.91211-16.4551 8.78906-13.4033 10.7178-10.8643L19.2871 0.415039C20.4834 2.00195 22.7295 2.02637 23.9258 0.415039Z"/>
  </g>
  <g id="Semibold-S" transform="matrix(1 0 0 1 1980.31 696)">
   <path d="M49.027-61.5526L111.915-61.5526C114.267-61.5526 116.153-63.4811 116.153-65.8023C116.153-68.1702 114.282-70.0521 111.915-70.0521L49.027-70.0521C46.7079-70.0521 44.8549-68.1392 44.8549-65.8023C44.8549-63.5121 46.7234-61.5526 49.027-61.5526ZM49.027-41.4843L111.915-41.4843C114.267-41.4843 116.153-43.446 116.153-45.7673C116.153-48.1019 114.282-50.017 111.915-50.017L49.027-50.017C46.7079-50.017 44.8549-48.0708 44.8549-45.7673C44.8549-43.4771 46.7234-41.4843 49.027-41.4843ZM49.027-21.4337L111.915-21.4337C114.267-21.4337 116.153-23.3954 116.153-25.7167C116.153-28.0513 114.282-29.9664 111.915-29.9664L49.027-29.9664C46.7079-29.9664 44.8549-28.0202 44.8549-25.7167C44.8549-23.4265 46.7234-21.4337 49.027-21.4337ZM49.027-1.39863L87.6247-1.39863C89.9437-1.39863 91.8301-3.36035 91.8301-5.68164C91.8301-8.01621 89.9593-9.93135 87.6247-9.93135L49.027-9.93135C46.7079-9.93135 44.8549-7.98516 44.8549-5.68164C44.8549-3.39141 46.7234-1.39863 49.027-1.39863ZM23.4992 0.139551L31.8619-10.8909C33.6463-13.2768 32.6587-16.3129 29.5071-16.3129L24.3246-16.3129L24.3246-55.3597L29.5071-55.3597C32.5921-55.3597 33.7129-58.3292 31.8619-60.7483L23.4992-71.8121C22.3474-73.3546 20.1546-73.3058 19.0027-71.8121L10.6911-60.7483C8.82461-58.3137 9.91211-55.3597 13.0104-55.3597L18.1974-55.3597L18.1974-16.3129L13.0104-16.3129C9.91211-16.3129 8.82461-13.3589 10.6911-10.8909L19.0027 0.139551C20.1546 1.6998 22.3474 1.71533 23.4992 0.139551Z"/>
  </g>
  <g id="Medium-S" transform="matrix(1 0 0 1 1684.44 696)">
   <path d="M48.3262-61.8154L110.601-61.8154C112.737-61.8154 114.462-63.5215 114.462-65.6406C114.462-67.7861 112.746-69.4658 110.601-69.4658L48.3262-69.4658C46.2295-69.4658 44.5449-67.7686 44.5449-65.6406C44.5449-63.5391 46.2383-61.8154 48.3262-61.8154ZM48.3262-41.7471L110.601-41.7471C112.737-41.7471 114.462-43.4932 114.462-45.6123C114.462-47.7178 112.746-49.4375 110.601-49.4375L48.3262-49.4375C46.2295-49.4375 44.5449-47.7002 44.5449-45.6123C44.5449-43.5107 46.2383-41.7471 48.3262-41.7471ZM48.3262-21.71L110.601-21.71C112.737-21.71 114.462-23.4561 114.462-25.5752C114.462-27.6807 112.746-29.4004 110.601-29.4004L48.3262-29.4004C46.2295-29.4004 44.5449-27.6631 44.5449-25.5752C44.5449-23.4736 46.2383-21.71 48.3262-21.71ZM48.3262-1.68164L86.2568-1.68164C88.3535-1.68164 90.0781-3.42773 90.0781-5.54688C90.0781-7.65234 88.3623-9.37207 86.2568-9.37207L48.3262-9.37207C46.2295-9.37207 44.5449-7.63477 44.5449-5.54688C44.5449-3.44531 46.2383-1.68164 48.3262-1.68164ZM23.1758-0.0693359L31.3633-10.9111C33.0938-13.2363 32.1533-16.2051 29.0557-16.2051L23.8125-16.2051L23.8125-55.1104L29.0557-55.1104C32.0732-55.1104 33.1738-57.999 31.3633-60.3643L23.1758-71.2461C22.0576-72.7549 19.9053-72.7061 18.7871-71.2461L10.6709-60.3643C8.85156-57.9902 9.91211-55.1104 12.916-55.1104L18.2041-55.1104L18.2041-16.2051L12.916-16.2051C9.91211-16.2051 8.85156-13.3252 10.6709-10.9111L18.7871-0.0693359C19.9053 1.4707 22.0576 1.47949 23.1758-0.0693359Z"/>
  </g>
  <g id="Regular-S" transform="matrix(1 0 0 1 1388.83 696)">
   <path d="M47.4121-62.1582L108.887-62.1582C110.742-62.1582 112.256-63.5742 112.256-65.4297C112.256-67.2852 110.742-68.7012 108.887-68.7012L47.4121-68.7012C45.6055-68.7012 44.1406-67.2852 44.1406-65.4297C44.1406-63.5742 45.6055-62.1582 47.4121-62.1582ZM47.4121-42.0898L108.887-42.0898C110.742-42.0898 112.256-43.5547 112.256-45.4102C112.256-47.2168 110.742-48.6816 108.887-48.6816L47.4121-48.6816C45.6055-48.6816 44.1406-47.2168 44.1406-45.4102C44.1406-43.5547 45.6055-42.0898 47.4121-42.0898ZM47.4121-22.0703L108.887-22.0703C110.742-22.0703 112.256-23.5352 112.256-25.3906C112.256-27.1973 110.742-28.6621 108.887-28.6621L47.4121-28.6621C45.6055-28.6621 44.1406-27.1973 44.1406-25.3906C44.1406-23.5352 45.6055-22.0703 47.4121-22.0703ZM47.4121-2.05078L84.4727-2.05078C86.2793-2.05078 87.793-3.51562 87.793-5.37109C87.793-7.17773 86.2793-8.64258 84.4727-8.64258L47.4121-8.64258C45.6055-8.64258 44.1406-7.17773 44.1406-5.37109C44.1406-3.51562 45.6055-2.05078 47.4121-2.05078ZM22.7539-0.341797L30.7129-10.9375C32.373-13.1836 31.4941-16.0645 28.4668-16.0645L23.1445-16.0645L23.1445-54.7852L28.4668-54.7852C31.3965-54.7852 32.4707-57.5684 30.7129-59.8633L22.7539-70.5078C21.6797-71.9727 19.5801-71.9238 18.5059-70.5078L10.6445-59.8633C8.88672-57.5684 9.91211-54.7852 12.793-54.7852L18.2129-54.7852L18.2129-16.0645L12.793-16.0645C9.91211-16.0645 8.88672-13.2812 10.6445-10.9375L18.5059-0.341797C19.5801 1.17188 21.6797 1.17188 22.7539-0.341797Z"/>
  </g>
  <g id="Light-S" transform="matrix(1 0 0 1 1093.71 696)">
   <path d="M44.9751-62.8696L106.465-62.8696C107.927-62.8696 109.077-63.9678 109.077-65.4146C109.077-66.8613 107.927-67.9595 106.465-67.9595L44.9751-67.9595C43.562-67.9595 42.4302-66.8613 42.4302-65.4146C42.4302-63.9678 43.562-62.8696 44.9751-62.8696ZM44.9751-42.7861L106.465-42.7861C107.927-42.7861 109.077-43.918 109.077-45.3647C109.077-46.7778 107.927-47.9097 106.465-47.9097L44.9751-47.9097C43.562-47.9097 42.4302-46.7778 42.4302-45.3647C42.4302-43.918 43.562-42.7861 44.9751-42.7861ZM44.9751-22.7363L106.465-22.7363C107.927-22.7363 109.077-23.853 109.077-25.3149C109.077-26.728 107.927-27.8599 106.465-27.8599L44.9751-27.8599C43.562-27.8599 42.4302-26.728 42.4302-25.3149C42.4302-23.853 43.562-22.7363 44.9751-22.7363ZM44.9751-2.68652L81.8994-2.68652C83.3277-2.68652 84.4781-3.80322 84.4781-5.26514C84.4781-6.67823 83.3277-7.81007 81.8994-7.81007L44.9751-7.81007C43.562-7.81007 42.4302-6.67823 42.4302-5.26514C42.4302-3.80322 43.562-2.68652 44.9751-2.68652ZM21.7246-0.841305L29.1992-10.7559C30.6021-12.6387 29.8291-15.0957 27.3316-15.0957L21.8428-15.0957L21.8428-55.6177L27.3316-55.6177C29.7617-55.6177 30.6694-58.0073 29.1992-59.9238L21.7246-69.8721C20.7412-71.2007 18.8687-71.1519 17.9004-69.8721L10.5083-59.9238C9.02295-58.0073 9.89697-55.6177 12.2935-55.6177L17.8496-55.6177L17.8496-15.0957L12.2935-15.0957C9.89697-15.0957 9.02295-12.7061 10.5083-10.7559L17.9004-0.841305C18.8687 0.505865 20.7412 0.521001 21.7246-0.841305Z"/>
  </g>
  <g id="Thin-S" transform="matrix(1 0 0 1 799.103 696)">
   <path d="M41.752-63.8105L103.262-63.8105C104.203-63.8105 104.873-64.4883 104.873-65.3945C104.873-66.3008 104.203-66.9785 103.262-66.9785L41.752-66.9785C40.8594-66.9785 40.168-66.3008 40.168-65.3945C40.168-64.4883 40.8594-63.8105 41.752-63.8105ZM41.752-43.707L103.262-43.707C104.203-43.707 104.873-44.3984 104.873-45.3047C104.873-46.1973 104.203-46.8887 103.262-46.8887L41.752-46.8887C40.8594-46.8887 40.168-46.1973 40.168-45.3047C40.168-44.3984 40.8594-43.707 41.752-43.707ZM41.752-23.6172L103.262-23.6172C104.203-23.6172 104.873-24.2734 104.873-25.2148C104.873-26.1074 104.203-26.7988 103.262-26.7988L41.752-26.7988C40.8594-26.7988 40.168-26.1074 40.168-25.2148C40.168-24.2734 40.8594-23.6172 41.752-23.6172ZM41.752-3.52733L78.4961-3.52733C79.4239-3.52733 80.0938-4.18359 80.0938-5.125C80.0938-6.01759 79.4239-6.709 78.4961-6.709L41.752-6.709C40.8594-6.709 40.168-6.01759 40.168-5.125C40.168-4.18359 40.8594-3.52733 41.752-3.52733ZM20.3633-1.50194L27.1973-10.5156C28.2598-11.918 27.627-13.8145 25.8301-13.8145L20.1211-13.8145L20.1211-56.7187L25.8301-56.7187C27.5996-56.7187 28.2871-58.5879 27.1973-60.0039L20.3633-69.0313C19.5-70.1797 17.9277-70.1309 17.0996-69.0313L10.3281-60.0039C9.20312-58.5879 9.87695-56.7187 11.6328-56.7187L17.3691-56.7187L17.3691-13.8145L11.6328-13.8145C9.87695-13.8145 9.20312-11.9453 10.3281-10.5156L17.0996-1.50194C17.9277-0.374988 19.5-0.339832 20.3633-1.50194Z"/>
  </g>
  <g id="Ultralight-S" transform="matrix(1 0 0 1 503.468 696)">
   <path d="M40.1011-64.2925L101.621-64.2925C102.296-64.2925 102.72-64.7549 102.72-65.3843C102.72-66.0137 102.296-66.4761 101.621-66.4761L40.1011-66.4761C39.4751-66.4761 39.0093-66.0137 39.0093-65.3843C39.0093-64.7549 39.4751-64.2925 40.1011-64.2925ZM40.1011-44.1787L101.621-44.1787C102.296-44.1787 102.72-44.6445 102.72-45.2739C102.72-45.8999 102.296-46.3657 101.621-46.3657L40.1011-46.3657C39.4751-46.3657 39.0093-45.8999 39.0093-45.2739C39.0093-44.6445 39.4751-44.1787 40.1011-44.1787ZM40.1011-24.0683L101.621-24.0683C102.296-24.0683 102.72-24.4888 102.72-25.1636C102.72-25.7896 102.296-26.2554 101.621-26.2554L40.1011-26.2554C39.4751-26.2554 39.0093-25.7896 39.0093-25.1636C39.0093-24.4888 39.4751-24.0683 40.1011-24.0683ZM40.1011-3.95799L76.753-3.95799C77.4244-3.95799 77.8482-4.37841 77.8482-5.05323C77.8482-5.67921 77.4244-6.14504 76.753-6.14504L40.1011-6.14504C39.4751-6.14504 39.0093-5.67921 39.0093-5.05323C39.0093-4.37841 39.4751-3.95799 40.1011-3.95799ZM19.666-1.84032L26.1719-10.3926C27.0601-11.5488 26.4991-13.1582 25.0611-13.1582L19.2393-13.1582L19.2393-57.2827L25.0611-57.2827C26.4922-57.2827 27.0669-58.8852 26.1719-60.0449L19.666-68.6006C18.8643-69.6568 17.4458-69.6079 16.6895-68.6006L10.2358-60.0449C9.29541-58.8852 9.8667-57.2827 11.2944-57.2827L17.1231-57.2827L17.1231-13.1582L11.2944-13.1582C9.8667-13.1582 9.29541-11.5557 10.2358-10.3926L16.6895-1.84032C17.4458-0.826156 18.8643-0.780746 19.666-1.84032Z"/>
  </g>
 </g>
</svg>
